<?xml version="1.0" encoding="iso-8859-1"?>
<!-- Generator: Adobe Illustrator 19.0.0, SVG Export Plug-In . SVG Version: 6.00 Build 0)  -->
<svg xmlns="http://www.w3.org/2000/svg" xmlns:xlink="http://www.w3.org/1999/xlink" version="1.1" id="Capa_1" x="0px" y="0px" viewBox="0 0 512 512" style="enable-background:new 0 0 512 512;" xml:space="preserve" width="512px" height="512px">
<g>
	<g>
		<path d="M503.664,272.564L391,216.697V75.002c0-5.508-3.098-10.817-8.292-13.417l-120-60c-4.223-2.111-9.193-2.111-13.416,0    l-120,60c-5.074,2.54-8.292,7.771-8.292,13.417v141.695L8.336,272.563C3.215,275.106,0,280.366,0,286.002v151    c0,5.704,3.273,10.927,8.336,13.438l121,60c4.23,2.1,9.198,2.057,13.372-0.022L256,453.772l113.292,56.646    c4.306,2.146,9.253,2.059,13.372,0.022l121-60c5.136-2.548,8.336-7.826,8.336-13.438v-151    C512,280.325,508.747,275.085,503.664,272.564z M121,472.821l-91-45.124V310.183l91,45.124V472.821z M135.972,329.244    l-87.208-43.243l87.208-43.243l86.487,43.243L135.972,329.244z M241,427.731l-90,45V355.272l90-45V427.731z M241,261.731l-90-45    V99.272l90,45V261.731z M169.541,75.002L256,31.772l86.459,43.229L256,118.231L169.541,75.002z M361,99.272v117.459l-90,45    V144.272L361,99.272z M361,472.731l-90-45V310.272l90,45V472.731z M376.028,329.245l-86.487-43.243l86.487-43.243l87.208,43.243    L376.028,329.245z M482,427.697l-91,45.124V355.307l91-45.124V427.697z" fill="#FFFFFF"/>
	</g>
</g>
<g>
</g>
<g>
</g>
<g>
</g>
<g>
</g>
<g>
</g>
<g>
</g>
<g>
</g>
<g>
</g>
<g>
</g>
<g>
</g>
<g>
</g>
<g>
</g>
<g>
</g>
<g>
</g>
<g>
</g>
</svg>